<?xml version="1.0" standalone="no"?>
<!DOCTYPE svg PUBLIC "-//W3C//DTD SVG 20010904//EN"
 "http://www.w3.org/TR/2001/REC-SVG-20010904/DTD/svg10.dtd">
<svg version="1.0" xmlns="http://www.w3.org/2000/svg"
 width="721.000000pt" height="721.000000pt" viewBox="0 0 721.000000 721.000000"
 preserveAspectRatio="xMidYMid meet">
<metadata>
Created by potrace 1.14, written by Peter Selinger 2001-2017
</metadata>
<g transform="translate(0.000000,721.000000) scale(0.100000,-0.100000)"
fill="#000000" stroke="none">
<path d="M3420 6721 c0 -6 5 -13 10 -16 6 -3 10 -21 10 -39 0 -45 22 -63 61
-49 23 9 29 9 29 -3 0 -8 -4 -14 -10 -14 -5 0 -10 -4 -10 -10 0 -5 16 -10 35
-10 34 0 46 12 25 25 -5 3 -10 26 -10 50 0 24 5 47 10 50 21 13 9 25 -25 25
-39 0 -40 -2 -23 -30 11 -17 9 -23 -10 -42 -19 -20 -24 -21 -32 -8 -13 20 -13
47 0 55 21 13 9 25 -25 25 -19 0 -35 -4 -35 -9z"/>
<path d="M3127 6710 c-45 -8 -57 -18 -37 -30 10 -6 14 -31 15 -90 l0 -81 34 3
c34 3 58 28 27 28 -30 0 -16 19 16 22 45 4 65 45 49 99 -11 35 -36 61 -58 58
-4 -1 -25 -5 -46 -9z m63 -39 c25 -47 -2 -109 -35 -81 -27 22 -14 100 17 100
4 0 12 -9 18 -19z"/>
<path d="M3825 6710 c-32 -12 -47 -36 -48 -74 -1 -38 16 -64 50 -77 28 -10 71
4 79 26 8 21 -3 32 -18 17 -24 -24 -78 -8 -78 24 0 9 15 11 55 7 52 -5 55 -4
55 16 0 24 -42 71 -62 70 -7 0 -22 -4 -33 -9z m53 -37 c2 -9 -7 -13 -28 -13
-28 0 -31 2 -20 15 15 18 41 16 48 -2z"/>
<path d="M2782 6650 c-27 -11 -45 -55 -37 -90 11 -41 34 -60 76 -60 51 0 83
39 75 90 -9 58 -56 83 -114 60z m68 -46 c15 -40 12 -62 -12 -75 -18 -10 -24
-8 -40 11 -10 12 -18 32 -18 44 0 48 54 63 70 20z"/>
<path d="M4138 6630 c-25 -26 -29 -36 -24 -63 11 -56 67 -83 117 -57 25 14 26
45 2 35 -54 -22 -83 -12 -83 30 0 44 63 75 73 35 7 -26 37 -26 37 -1 0 24 -36
51 -68 51 -13 0 -37 -14 -54 -30z"/>
<path d="M4464 6565 c7 -27 -17 -94 -37 -107 -16 -10 0 -25 35 -33 24 -6 26
-4 25 22 -1 15 3 28 8 28 6 0 10 -14 10 -32 0 -17 3 -34 6 -37 11 -12 52 -11
56 2 3 6 -3 12 -12 12 -13 0 -16 6 -12 22 3 12 2 29 -3 39 -7 12 -5 21 7 30
13 11 17 11 20 2 3 -7 14 -13 25 -13 14 0 19 6 16 23 -4 29 -52 36 -79 11 -10
-9 -22 -14 -27 -10 -4 4 1 13 11 20 24 18 22 22 -14 35 -42 15 -42 15 -35 -14z"/>
<path d="M2448 6554 c-29 -9 -48 -20 -48 -29 0 -8 4 -15 9 -15 13 0 41 -88 34
-107 -5 -14 -1 -15 26 -10 18 4 48 14 67 23 27 13 34 22 34 45 0 17 -6 32 -15
35 -8 4 -15 16 -15 28 0 24 -17 46 -34 45 -6 0 -32 -7 -58 -15z m57 -34 c0 -7
-10 -16 -22 -21 -19 -7 -23 -5 -23 10 0 19 16 32 35 27 6 -2 10 -9 10 -16z
m31 -52 c7 -12 -21 -38 -42 -38 -19 0 -24 38 -5 43 29 8 40 7 47 -5z"/>
<path d="M4800 6440 c0 -27 -36 -97 -52 -102 -10 -4 -10 -8 1 -21 19 -23 37
-21 68 8 33 30 42 25 18 -11 -17 -26 -17 -28 1 -41 20 -14 40 -12 37 5 -4 16
37 102 47 102 21 0 8 30 -15 36 -20 5 -30 0 -46 -20 -21 -27 -39 -34 -39 -16
0 6 9 19 21 31 11 11 19 22 17 23 -7 7 -47 26 -52 26 -3 0 -6 -9 -6 -20z"/>
<path d="M2135 6423 c-62 -32 -59 -27 -51 -58 8 -30 22 -33 29 -5 3 11 9 20
14 20 15 0 44 -71 38 -91 -8 -23 6 -24 46 -4 29 15 31 35 4 35 -10 0 -45 65
-45 86 0 3 14 3 30 -1 33 -7 37 0 16 28 -17 22 -21 21 -81 -10z"/>
<path d="M5150 6299 c0 -6 -9 -8 -20 -4 -16 5 -20 2 -20 -15 0 -24 -43 -96
-62 -103 -9 -3 -7 -9 7 -21 23 -17 45 -21 45 -6 0 5 14 17 31 25 30 16 30 16
20 -4 -6 -11 -19 -25 -29 -31 -16 -9 -16 -11 2 -25 24 -18 48 -20 44 -2 -3 18
45 97 60 97 18 0 15 17 -5 29 -10 6 -12 11 -5 11 6 0 12 7 12 16 0 12 -6 15
-21 11 -15 -4 -23 0 -26 14 -6 20 -33 27 -33 8z m30 -54 c0 -8 -13 -21 -30
-30 l-30 -15 12 24 c6 14 18 27 27 29 9 3 17 5 19 6 1 0 2 -6 2 -14z"/>
<path d="M1929 6229 c-343 -208 -681 -531 -921 -879 -254 -368 -437 -835 -503
-1283 -33 -226 -42 -604 -18 -744 5 -30 3 -33 -20 -33 -36 0 -85 -45 -93 -84
l-6 -34 -45 14 c-142 43 -230 -17 -221 -151 5 -84 51 -174 134 -263 103 -112
196 -166 362 -210 l63 -17 43 -105 c218 -536 642 -1055 1126 -1377 253 -169
606 -334 853 -400 68 -17 69 -17 83 2 27 36 13 47 -121 90 -276 89 -517 204
-750 360 -199 133 -288 206 -476 394 -219 220 -376 431 -524 704 -54 101 -155
329 -149 338 2 4 28 13 56 19 147 35 237 133 285 310 27 98 24 480 -5 729 -12
101 -21 185 -20 187 3 2 290 -350 317 -389 8 -11 21 -68 28 -126 32 -252 120
-488 195 -527 65 -34 123 3 148 94 26 97 2 407 -41 537 -24 69 -99 216 -153
298 l-37 55 26 128 c52 255 165 535 296 734 86 131 258 302 364 364 188 109
358 125 394 37 15 -35 5 -58 -36 -91 l-28 -22 35 -29 c120 -101 274 -13 231
132 -38 128 -195 229 -355 229 -178 0 -341 -82 -517 -260 -219 -221 -398 -576
-483 -959 -14 -62 -26 -115 -28 -116 -2 -2 -34 38 -73 88 -352 457 -412 558
-446 760 -6 37 -15 67 -19 67 -21 0 -70 -55 -87 -98 -14 -36 -18 -73 -17 -162
1 -136 25 -245 85 -395 l41 -100 19 -275 c23 -337 23 -403 4 -516 -29 -167
-101 -255 -195 -239 -49 8 -98 47 -116 92 -8 18 -14 61 -14 97 0 54 -3 66 -19
71 -23 7 -31 95 -31 355 0 588 172 1151 505 1650 122 183 200 276 374 450 167
166 297 272 481 393 168 111 154 98 139 130 -7 15 -17 27 -24 27 -6 0 -50 -23
-96 -51z m-351 -3127 c43 -94 62 -193 46 -236 -11 -28 -22 -17 -44 42 -25 64
-70 254 -70 292 0 24 1 23 22 -10 11 -19 32 -59 46 -88z"/>
<path d="M5312 6098 c-28 -28 -12 -53 86 -128 117 -90 392 -362 486 -480 394
-495 629 -1113 653 -1717 l6 -152 -36 -6 c-53 -10 -69 -4 -98 40 -72 108 -133
415 -105 532 6 27 3 37 -19 58 -14 15 -33 25 -41 23 -11 -2 -33 -48 -63 -133
-57 -156 -113 -270 -142 -285 -31 -17 -63 9 -80 67 -28 96 -7 311 42 436 50
126 -8 212 -93 138 -39 -34 -79 -55 -130 -69 l-37 -10 5 61 c9 101 -29 151
-100 133 -44 -11 -60 -94 -31 -161 13 -34 12 -41 -31 -168 -53 -154 -105 -257
-146 -292 -42 -36 -62 -33 -54 7 30 151 11 303 -49 400 -65 103 -137 114 -185
28 -21 -39 -24 -57 -23 -130 1 -130 35 -246 99 -341 19 -28 34 -60 34 -70 0
-26 -82 -113 -127 -134 -74 -35 -148 16 -179 123 -46 156 -1 376 91 449 39 31
45 61 17 86 -41 37 -101 11 -182 -81 -65 -72 -123 -193 -151 -312 -24 -105
-89 -267 -126 -317 -29 -39 -76 -46 -93 -13 -30 56 -30 121 -4 469 14 190 28
348 30 350 1 2 81 8 176 13 95 5 182 11 193 13 14 3 32 27 54 73 19 38 32 74
30 79 -2 5 -95 -3 -222 -20 -120 -16 -220 -27 -221 -25 -2 1 1 56 6 121 5 65
8 120 6 122 -2 2 -49 -2 -103 -10 -55 -8 -103 -15 -106 -15 -4 0 -9 -37 -13
-82 -4 -46 -9 -104 -13 -129 l-5 -46 -75 -11 c-64 -9 -80 -15 -109 -43 -19
-18 -34 -37 -34 -41 0 -4 50 -8 111 -8 100 0 110 -2 105 -17 -2 -10 -10 -117
-17 -238 l-12 -220 -59 -160 c-84 -226 -119 -281 -167 -256 -45 25 -51 123
-25 438 9 107 14 197 11 200 -3 3 -53 0 -110 -7 l-105 -13 -6 -58 -7 -58 -40
44 c-104 112 -254 94 -384 -46 -37 -41 -71 -94 -113 -181 -68 -140 -84 -161
-102 -128 -8 16 -9 30 -1 52 32 90 -1 215 -63 244 -33 16 -36 16 -62 0 -26
-18 -26 -20 -21 -100 2 -44 13 -105 22 -134 l18 -52 -32 -112 c-41 -143 -63
-192 -96 -214 -26 -17 -28 -17 -41 1 -20 27 -17 120 10 390 13 127 22 232 20
234 -2 2 -49 -2 -104 -9 -73 -10 -103 -18 -109 -29 -5 -9 -12 -68 -16 -131 -6
-104 -10 -123 -44 -195 -37 -79 -95 -145 -126 -145 -11 0 -13 8 -7 33 4 17 7
91 7 162 0 127 -1 132 -33 197 -96 196 -232 159 -232 -64 0 -113 55 -286 113
-354 34 -40 34 -51 -3 -100 -44 -61 -97 -94 -150 -94 -37 0 -48 5 -80 39 -49
51 -65 111 -65 241 1 144 28 224 98 293 45 44 49 50 38 73 -6 13 -22 29 -36
36 -21 9 -31 7 -72 -18 -100 -62 -208 -237 -239 -389 -20 -95 -15 -246 10
-315 24 -68 84 -139 144 -173 69 -39 162 -41 236 -7 91 43 182 165 215 288 12
41 13 42 55 42 33 0 56 8 95 34 l51 35 0 -47 c0 -53 19 -132 43 -178 23 -45
81 -92 122 -100 40 -7 113 16 138 44 40 44 82 153 141 363 l16 56 45 -15 c44
-14 45 -15 45 -56 0 -181 145 -328 309 -313 100 9 177 60 237 158 l37 59 28
-49 c74 -129 242 -136 335 -13 18 22 45 73 60 111 16 39 31 71 34 71 3 0 13
-22 22 -48 38 -106 104 -162 190 -162 95 1 174 68 226 192 l29 69 37 -61 c61
-99 157 -149 260 -135 70 9 108 27 162 77 60 56 92 105 125 198 l27 75 49 5
c113 12 185 109 269 363 20 62 38 113 39 115 1 1 34 -8 73 -20 l70 -22 -23
-46 c-62 -124 -102 -293 -91 -383 13 -92 63 -181 123 -218 28 -17 46 -21 97
-17 112 7 181 72 233 219 27 77 43 99 43 59 0 -33 58 -202 89 -256 l28 -52
-76 -12 c-327 -51 -1012 -243 -1640 -459 -447 -153 -782 -209 -1200 -198 -215
5 -360 23 -513 63 -33 8 -63 13 -66 10 -8 -8 70 -104 140 -173 35 -34 136
-120 225 -191 278 -221 461 -292 753 -292 311 0 578 94 1000 350 631 384 780
471 1016 588 185 93 265 125 378 155 l82 21 42 -45 43 -44 -6 -77 c-8 -107
-40 -280 -80 -436 -193 -736 -666 -1374 -1330 -1791 -172 -108 -453 -238 -652
-302 -69 -22 -72 -24 -66 -48 10 -44 19 -46 95 -22 184 59 434 170 613 273
324 188 663 494 914 826 292 387 497 886 567 1382 8 63 17 124 20 135 3 18 12
20 78 22 89 2 127 19 150 67 52 109 -33 226 -164 226 l-46 0 -12 181 c-53 785
-368 1474 -919 2010 -128 124 -337 299 -358 299 -6 0 -16 -5 -23 -12z m4
-1864 c8 -58 1 -184 -13 -208 -9 -16 -14 -11 -33 40 -34 92 -20 214 26 214 8
0 15 -18 20 -46z m-1618 -138 c71 -37 104 -104 103 -207 -2 -141 -30 -229 -94
-296 -84 -89 -204 -54 -238 69 -19 73 -7 224 24 292 38 83 65 116 111 137 50
22 59 23 94 5z m-1244 -203 c22 -57 12 -243 -13 -243 -16 0 -51 113 -51 163 0
65 47 124 64 80z m4284 -389 c12 -4 22 -11 22 -16 0 -16 -67 -38 -100 -32 -34
7 -44 18 -36 39 6 16 70 20 114 9z"/>
<path d="M4205 722 c-50 -19 -52 -21 -38 -30 17 -11 44 -134 32 -149 -14 -16
3 -24 40 -17 31 7 44 34 16 34 -8 0 -15 5 -15 10 0 6 11 10 24 10 33 0 56 25
56 61 0 33 -25 89 -39 89 -5 0 -15 2 -23 4 -7 2 -31 -3 -53 -12z m71 -47 c17
-41 4 -78 -24 -73 -22 4 -38 73 -22 93 19 23 30 18 46 -20z"/>
<path d="M2873 669 c0 -30 -7 -57 -17 -68 -9 -10 -16 -20 -16 -24 0 -3 25 -11
55 -17 30 -6 59 -18 64 -27 4 -9 13 -13 20 -9 13 8 15 46 2 46 -4 0 -4 23 2
50 5 28 14 50 18 50 5 0 9 6 9 14 0 15 -45 30 -60 21 -5 -3 -11 -1 -15 5 -3 5
-18 10 -33 10 -26 0 -27 -3 -29 -51z m81 13 c2 -4 -1 -29 -7 -55 -8 -35 -15
-47 -26 -44 -16 3 -18 35 -6 85 5 21 29 30 39 14z"/>
<path d="M3890 671 c-40 -5 -45 -9 -48 -33 -4 -32 4 -35 29 -12 17 15 19 14
25 -10 3 -15 3 -45 0 -68 l-7 -41 32 7 c40 8 45 12 30 29 -6 8 -14 35 -17 61
-6 40 -5 46 10 40 9 -3 16 -10 16 -15 0 -5 7 -9 16 -9 12 0 15 6 10 23 -3 12
-6 25 -6 30 0 8 -20 7 -90 -2z"/>
<path d="M3208 643 c-37 -43 -28 -111 18 -132 35 -15 48 -14 75 8 29 23 19 39
-15 23 -18 -8 -28 -7 -45 4 -38 27 -26 39 34 36 48 -3 55 -2 55 15 0 10 -7 29
-16 41 -19 28 -83 31 -106 5z m66 -9 c27 -10 18 -24 -15 -24 -27 0 -30 2 -19
15 14 17 13 17 34 9z"/>
<path d="M3510 635 c0 -8 5 -15 10 -15 13 0 13 -97 0 -105 -18 -11 0 -25 31
-25 29 0 30 1 23 35 -5 31 -4 35 15 35 14 0 21 -6 21 -20 0 -11 -4 -20 -10
-20 -5 0 -10 -7 -10 -15 0 -10 11 -15 35 -15 24 0 35 5 35 15 0 8 -4 15 -10
15 -5 0 -10 22 -10 49 0 28 5 53 10 56 21 13 9 25 -25 25 -34 0 -46 -12 -25
-25 20 -12 10 -35 -15 -35 -16 0 -25 6 -25 15 0 8 5 15 10 15 6 0 10 7 10 15
0 10 -11 15 -35 15 -24 0 -35 -5 -35 -15z"/>
</g>
</svg>
